# xmcd
#
# Track frame offsets: 
#        187
#        10322
#        20840
#        33040
#        44847
#        58292
#        71057
#        83395
#        93310
#        102585
#        113260
#        124712
#        135907
#        144880
#        155540
#        166545
#        177687
#        187500
#        197337
#        206760
#        217682
#        228775
#        240765
#        254727
#
# Disc length: 3540 seconds
#
# Revision: 3
# Processed by: cddbd v1.5.2PL0 Copyright (c) Steve Scherf et al.
# Submitted via: ExactAudioCopy v0.99pb4
#
DISCID=310dd218
DTITLE=Astrud Gilberto - Best Hits
DYEAR=1900
DGENRE=
TTITLE0=Once I Loved
TTITLE1=Agua De Beber
TTITLE2=Meditation
TTITLE3=And Roses And Roses
TTITLE4=O Morro (Nao Tem Vez)
TTITLE5=How Insensitive
TTITLE6=Dindi
TTITLE7=Photograph
TTITLE8=Dreamer
TTITLE9=So Finha De Ser Com Voce
TTITLE10=The Shadow Of Your Smile
TTITLE11=Aruanda
TTITLE12=Manha De Carnaval
TTITLE13=Fly Me To The Moon
TTITLE14=The Gentle Rain
TTITLE15=Non-Stop To Brazil
TTITLE16=O Ganso
TTITLE17=Who Can I Turn To? (When Nobody Needs Me)
TTITLE18=Day By Day
TTITLE19=Tristeza
TTITLE20=Funny World
TTITLE21=So Nice (Summer Samba)
TTITLE22=Let go (Canto De Ossanho)
TTITLE23=Berimbou
EXTD=
EXTT0=
EXTT1=
EXTT2=
EXTT3=
EXTT4=
EXTT5=
EXTT6=
EXTT7=
EXTT8=
EXTT9=
EXTT10=
EXTT11=
EXTT12=
EXTT13=
EXTT14=
EXTT15=
EXTT16=
EXTT17=
EXTT18=
EXTT19=
EXTT20=
EXTT21=
EXTT22=
EXTT23=
PLAYORDER=
